<svg width="132" height="57" viewBox="0 0 132 57" fill="none" xmlns="http://www.w3.org/2000/svg">
<path d="M50.4787 1C50.4787 0.447716 50.0309 0 49.4787 0H1C0.447717 0 0 0.447715 0 1V6.73481C0 7.28709 0.447715 7.73481 1 7.73481H20.9621V55C20.9621 55.5523 21.4098 56 21.9621 56H28.5165C29.0688 56 29.5165 55.5523 29.5165 55V7.73481H49.4787C50.0309 7.73481 50.4787 7.28709 50.4787 6.73481V1Z" fill="#E9E1D6"/>
<path d="M108.761 56.0204C107.251 56.0204 105.961 55.7595 104.889 55.2377C103.817 54.7017 102.999 53.8767 102.435 52.7625C101.885 51.6483 101.61 50.2309 101.61 48.5102C101.61 45.9716 102.231 44.0887 103.472 42.8617C104.727 41.6206 106.49 41 108.761 41C110.002 41 111.116 41.2116 112.103 41.6347C113.09 42.0578 113.866 42.6924 114.43 43.5387C114.851 44.1551 115.119 44.8875 115.234 45.7358C115.307 46.2832 114.85 46.7332 114.298 46.7332H113.124C112.572 46.7332 112.147 46.2769 112.005 45.7431C111.934 45.4787 111.833 45.2375 111.701 45.0196C111.433 44.5541 111.045 44.2015 110.538 43.9618C110.044 43.7079 109.466 43.581 108.803 43.581C107.9 43.581 107.153 43.7573 106.56 44.1099C105.982 44.4625 105.552 44.9843 105.27 45.6754C105.002 46.3524 104.868 47.1845 104.868 48.1717V48.8276C104.868 49.843 105.009 50.6963 105.291 51.3874C105.573 52.0644 105.996 52.5791 106.56 52.9317C107.139 53.2702 107.879 53.4395 108.782 53.4395C109.487 53.4395 110.1 53.3196 110.622 53.0798C111.144 52.8401 111.546 52.4875 111.828 52.022C111.96 51.8041 112.061 51.5629 112.132 51.2985C112.273 50.7647 112.699 50.3084 113.251 50.3084H114.298C114.85 50.3084 115.307 50.7583 115.235 51.3059C115.124 52.1542 114.862 52.8866 114.451 53.5029C113.901 54.3492 113.133 54.9838 112.145 55.4069C111.158 55.8159 110.03 56.0204 108.761 56.0204Z" fill="#E9E1D6"/>
<path d="M124.551 56.0204C123.014 56.0204 121.688 55.7454 120.574 55.1954C119.46 54.6453 118.606 53.8132 118.014 52.699C117.422 51.5848 117.125 50.1886 117.125 48.5102C117.125 46.8037 117.422 45.4004 118.014 44.3003C118.606 43.1861 119.46 42.361 120.574 41.8251C121.688 41.275 123.014 41 124.551 41C126.117 41 127.449 41.275 128.549 41.8251C129.664 42.361 130.517 43.1861 131.109 44.3003C131.702 45.4004 131.998 46.8037 131.998 48.5102C131.998 50.1886 131.702 51.5848 131.109 52.699C130.517 53.8132 129.664 54.6453 128.549 55.1954C127.449 55.7454 126.117 56.0204 124.551 56.0204ZM124.551 53.4395C125.242 53.4395 125.849 53.3407 126.37 53.1433C126.892 52.9458 127.329 52.6497 127.682 52.2548C128.035 51.8599 128.303 51.3803 128.486 50.8162C128.669 50.2379 128.761 49.5821 128.761 48.8487V48.1929C128.761 47.4454 128.669 46.7825 128.486 46.2043C128.303 45.626 128.035 45.1465 127.682 44.7657C127.329 44.3708 126.892 44.0746 126.37 43.8772C125.849 43.6797 125.242 43.581 124.551 43.581C123.874 43.581 123.275 43.6797 122.753 43.8772C122.231 44.0746 121.794 44.3708 121.441 44.7657C121.089 45.1465 120.821 45.626 120.637 46.2043C120.468 46.7825 120.383 47.4454 120.383 48.1929V48.8487C120.383 49.5821 120.468 50.2379 120.637 50.8162C120.821 51.3803 121.089 51.8599 121.441 52.2548C121.794 52.6497 122.231 52.9458 122.753 53.1433C123.275 53.3407 123.874 53.4395 124.551 53.4395Z" fill="#E9E1D6"/>
<path fill-rule="evenodd" clip-rule="evenodd" d="M81.8944 5.24236C81.5482 1.93304 77.2881 0.807569 75.3556 3.52272L64.9396 18.1574C62.3381 15.7094 58.884 13.4046 55.2245 12.1926C50.8968 10.7592 46.0469 10.8008 42.1444 14.2996C39.6423 16.5429 38.3935 19.1276 38.1472 21.8378C37.9046 24.5073 38.6456 27.161 39.8662 29.5847C42.0191 33.8597 45.8079 37.709 49.2476 40.2051L40.76 52.1304C39.582 53.7855 40.7653 56.08 42.7968 56.08H45.4971C46.306 56.08 47.0649 55.6887 47.5339 55.0297L55.449 43.9088C61.8418 47.2292 69.2315 50.0425 76.6837 50.3636C77.3083 51.7438 77.9105 53.1338 78.4907 54.5336C78.8769 55.4654 79.7868 56.08 80.8034 56.08H84.437C85.9206 56.08 87.0778 54.7955 86.9234 53.32L86.491 49.1863C96.1679 46.3433 103.608 38.9282 110.24 32.3186C110.455 32.1039 110.67 31.89 110.884 31.6773C110.965 31.5958 111.068 31.4985 111.184 31.3878C111.71 30.888 112.523 30.1154 113.021 29.3022C113.351 28.7638 113.65 28.056 113.619 27.2324C113.587 26.3685 113.2 25.5956 112.558 24.947C111.921 24.304 111.159 23.91 110.302 23.8641C109.483 23.8202 108.775 24.1055 108.235 24.4262C107.407 24.9168 106.627 25.7255 106.124 26.2469L106.124 26.247C106.019 26.3554 105.927 26.4513 105.848 26.5294C105.464 26.9121 105.079 27.2962 104.693 27.6808C98.932 33.4319 93.0588 39.2945 85.726 41.8724L81.8944 5.24236ZM77.9434 36.6807C75.5303 32.2084 72.8595 27.8372 69.7883 23.7617L75.7204 15.427L77.9434 36.6807ZM46.9507 19.6605C48.8444 17.9627 51.392 18.0804 54.2771 19.4236C56.7077 20.5553 59.0464 22.4299 60.7029 24.1101L53.425 34.3357C51.3123 32.796 48.6354 30.3801 46.9162 27.7694C45.8882 26.2082 45.2878 24.7052 45.237 23.3644C45.1892 22.1038 45.618 20.8553 46.9507 19.6605ZM59.672 37.9753L65.3829 29.9513C68.2112 33.9745 70.6826 38.2793 72.9604 42.6921C68.407 41.8548 63.8872 40.0818 59.672 37.9753Z" fill="#E9E1D6"/>
</svg>
