<?xml version="1.0" standalone="no"?>
<!DOCTYPE svg PUBLIC "-//W3C//DTD SVG 20010904//EN"
 "http://www.w3.org/TR/2001/REC-SVG-20010904/DTD/svg10.dtd">
<svg version="1.0" xmlns="http://www.w3.org/2000/svg"
 width="912.000000pt" height="912.000000pt" viewBox="0 0 912.000000 912.000000"
 preserveAspectRatio="xMidYMid meet">
<metadata>
Created by potrace 1.14, written by Peter Selinger 2001-2017
</metadata>
<g transform="translate(0.000000,912.000000) scale(0.100000,-0.100000)"
fill="#000000" stroke="none">
<path d="M136 6763 c-2 -2 -23 -4 -47 -5 -32 0 -48 -7 -66 -26 l-24 -26 3
-264 3 -263 25 -19 c24 -18 58 -19 829 -19 442 0 806 -3 810 -6 3 -4 6 -859 7
-1900 1 -1719 2 -1896 17 -1918 17 -27 81 -48 112 -37 11 4 23 2 27 -4 5 -7 8
-7 8 0 0 6 19 8 54 4 30 -3 62 -3 72 0 10 4 35 3 56 0 21 -4 41 -3 44 1 3 5
12 5 22 0 9 -5 26 -5 39 0 13 5 25 4 28 -2 4 -5 11 -7 16 -4 5 4 40 7 79 7 59
1 73 5 91 24 12 13 19 30 16 38 -4 9 -3 16 1 16 9 0 8 217 -1 226 -3 4 -3 14
1 23 9 19 8 288 -1 297 -3 4 -3 14 1 23 9 19 8 288 -1 297 -3 4 -3 14 1 23 9
19 8 288 -1 297 -3 4 -3 14 1 23 6 14 8 267 2 296 -1 6 -1 15 0 20 7 27 4 215
-3 215 -5 0 -5 5 -2 11 10 15 12 149 2 149 -4 0 -5 5 -2 11 6 9 10 368 5 394
-1 6 -1 15 0 20 7 29 4 375 -3 375 -5 0 -5 5 -2 11 10 15 12 149 2 149 -4 0
-5 5 -2 11 6 9 10 368 5 394 -1 6 -1 15 0 20 6 27 4 375 -2 375 -4 0 -4 10 0
23 4 12 7 39 5 60 l-2 37 67 0 c37 1 398 1 802 1 645 0 738 2 767 16 18 8 34
20 34 27 1 6 3 22 6 36 2 14 3 39 2 55 -4 96 -4 143 3 163 4 12 4 22 0 22 -9
0 -8 72 1 87 4 7 3 14 -2 17 -5 3 -6 21 -1 40 4 19 5 37 3 40 -3 3 -6 18 -8
34 -4 50 -21 70 -67 77 -47 8 -163 9 -175 2 -4 -2 -17 -1 -28 3 -11 4 -34 4
-52 -1 -18 -4 -35 -3 -38 2 -3 4 -16 5 -28 0 -12 -5 -31 -5 -42 -1 -11 4 -33
4 -50 0 -16 -3 -43 -5 -60 -3 -73 7 -225 7 -225 0 0 -5 -4 -6 -8 -3 -5 3 -24
6 -43 6 -38 1 -157 1 -176 1 -30 -2 -42 -2 -120 0 -45 0 -85 -1 -90 -4 -4 -2
-17 -1 -28 3 -11 4 -34 4 -52 -1 -18 -4 -35 -3 -38 2 -3 4 -16 5 -28 0 -12 -5
-31 -5 -41 -1 -11 4 -34 4 -50 0 -17 -3 -51 -3 -76 1 -25 4 -47 3 -48 -2 -2
-5 -8 -7 -13 -4 -4 3 -34 5 -66 5 -61 -1 -105 0 -190 3 -29 2 -53 -1 -53 -6 0
-4 -4 -5 -10 -2 -5 3 -35 5 -67 5 -61 -1 -105 0 -190 3 -29 2 -53 -1 -53 -6 0
-4 -4 -5 -10 -2 -5 3 -35 5 -67 5 -61 -1 -105 0 -190 3 -29 2 -53 -1 -53 -6 0
-4 -4 -5 -10 -2 -5 3 -35 5 -67 5 -61 -1 -105 0 -190 3 -29 2 -53 -1 -53 -6 0
-4 -4 -5 -10 -2 -5 3 -35 5 -67 5 -61 -1 -105 0 -190 3 -29 2 -53 -1 -53 -6 0
-4 -4 -5 -10 -2 -5 3 -35 5 -67 5 -61 -1 -105 0 -190 3 -29 2 -53 -1 -53 -6 0
-4 -4 -5 -10 -2 -5 3 -35 5 -67 5 -61 -1 -105 0 -190 3 -29 2 -53 0 -53 -4 0
-3 -20 -3 -45 1 -25 4 -47 5 -49 3z"/>
<path d="M6161 6581 c-36 -14 -70 -37 -103 -71 -27 -27 -46 -50 -43 -50 4 0 0
-6 -7 -13 -7 -8 -47 -62 -88 -121 -41 -59 -86 -123 -100 -141 -14 -18 -31 -41
-38 -51 -18 -28 -309 -437 -319 -450 -4 -5 -12 -17 -18 -26 -15 -24 -174 -246
-214 -298 -19 -25 -38 -44 -43 -42 -6 1 -30 21 -54 44 -24 22 -54 48 -66 56
-13 9 -25 19 -28 22 -3 4 -39 31 -80 61 -41 29 -76 57 -78 61 -2 5 -9 8 -15 8
-7 0 -40 18 -74 39 -57 37 -244 133 -268 138 -5 1 -43 13 -83 27 -235 82 -457
102 -652 59 -94 -20 -299 -110 -308 -134 -2 -5 -8 -9 -13 -9 -5 0 -18 -8 -30
-17 -175 -143 -276 -278 -344 -458 -14 -38 -25 -71 -25 -73 1 -1 -1 -15 -5
-30 -14 -65 -21 -238 -11 -287 2 -11 7 -42 11 -70 5 -27 9 -52 10 -55 1 -3 7
-25 14 -50 17 -64 61 -179 83 -217 10 -18 14 -33 10 -33 -4 0 -2 -4 3 -8 6 -4
19 -25 30 -47 11 -22 22 -42 25 -45 3 -3 19 -27 35 -55 15 -27 31 -52 35 -55
3 -3 16 -22 29 -43 13 -21 28 -43 34 -50 7 -6 38 -45 70 -84 77 -97 250 -271
364 -366 50 -42 94 -77 98 -77 3 0 13 -6 20 -14 14 -14 13 -15 -190 -301 -43
-60 -94 -131 -160 -225 -41 -58 -81 -113 -87 -122 -7 -9 -19 -25 -26 -35 -37
-54 -112 -159 -120 -168 -5 -6 -17 -24 -28 -40 -10 -17 -21 -32 -24 -35 -16
-15 -48 -69 -57 -95 -15 -44 -8 -107 17 -156 46 -90 100 -109 295 -104 77 2
147 5 156 7 40 9 89 57 154 150 39 54 80 111 92 126 13 15 23 30 23 34 0 4 6
13 13 20 7 7 33 42 57 78 24 36 48 70 53 75 4 6 46 64 93 130 46 66 91 128 99
138 8 9 15 20 15 23 0 6 79 116 119 165 20 26 26 28 40 17 14 -12 87 -50 101
-53 3 0 16 -7 30 -15 14 -8 27 -15 30 -15 8 -2 90 -40 140 -64 25 -12 115 -49
200 -83 85 -33 164 -64 175 -68 17 -8 177 -59 280 -90 45 -13 185 -47 230 -55
192 -35 230 -42 315 -51 36 -3 74 -8 85 -9 11 -1 36 -3 55 -4 39 -1 35 7 124
-204 66 -154 82 -183 118 -210 49 -36 77 -41 258 -43 176 -2 226 5 272 39 29
22 70 78 76 107 8 37 4 116 -15 275 -3 28 -6 68 -7 90 l-1 39 95 33 c52 18
104 37 115 42 11 5 40 18 65 28 91 37 249 118 380 197 131 79 155 95 188 126
9 8 17 14 19 12 3 -2 86 57 128 90 6 5 50 40 99 79 49 39 95 76 102 82 7 7 31
28 54 47 23 19 54 45 68 58 138 125 271 251 460 437 123 121 227 222 231 225
30 22 115 136 135 181 44 101 22 220 -54 297 -39 39 -90 76 -90 66 0 -3 -7 0
-17 7 -10 9 -42 14 -92 14 -62 0 -85 -5 -127 -26 -69 -36 -64 -32 -329 -294
-230 -227 -497 -482 -562 -535 -10 -8 -43 -35 -73 -60 -30 -25 -57 -47 -60
-50 -3 -3 -21 -17 -40 -30 -19 -14 -42 -32 -51 -40 -20 -19 -95 -72 -179 -127
-36 -23 -69 -46 -75 -50 -5 -5 -44 -27 -85 -49 -41 -21 -77 -42 -80 -45 -3 -4
-27 -17 -55 -29 -27 -12 -77 -35 -110 -50 -53 -24 -102 -40 -122 -40 -6 0 -7
4 -18 113 -3 34 -8 82 -10 107 -3 25 -7 63 -10 85 -3 22 -7 69 -10 105 -3 36
-8 85 -11 110 -7 50 -9 66 -18 160 -4 36 -9 81 -12 100 -2 19 -7 62 -9 95 -3
33 -7 78 -10 100 -5 42 -11 101 -20 195 -6 62 -10 109 -20 195 -6 60 -10 89
-20 175 -3 25 -7 70 -10 100 -5 67 -14 153 -21 200 -2 19 -6 64 -9 100 -3 36
-7 79 -9 95 -9 56 -22 181 -31 285 -3 25 -7 70 -11 100 -4 30 -8 73 -9 95 -2
22 -4 40 -5 40 -1 0 -3 18 -5 40 -4 61 -16 177 -20 205 -3 14 -7 48 -10 75 -3
28 -7 62 -9 77 -4 33 -41 105 -69 136 -23 26 -101 74 -127 80 -67 14 -139 11
-189 -7z m-100 -1078 c0 -5 2 -30 4 -57 3 -27 7 -66 10 -85 3 -20 8 -67 11
-106 3 -38 7 -80 9 -93 8 -47 18 -159 19 -209 1 -29 4 -53 7 -53 3 0 5 -12 6
-27 0 -16 3 -55 7 -88 14 -110 19 -161 30 -291 4 -39 9 -82 11 -95 5 -25 12
-88 20 -187 6 -75 14 -147 20 -197 8 -60 16 -179 12 -174 -2 2 -20 33 -39 69
-19 36 -52 94 -72 130 -21 36 -40 73 -43 83 -3 9 -9 17 -14 17 -5 0 -9 5 -9
11 0 6 -13 30 -30 54 -16 24 -30 46 -30 49 0 4 -21 39 -47 79 -122 188 -158
242 -165 245 -5 2 -8 8 -8 12 0 11 -134 204 -166 240 l-22 25 22 31 c11 17 30
44 41 60 11 16 28 38 37 48 10 11 18 25 18 32 0 7 4 14 8 16 5 2 64 82 132
178 68 96 126 177 129 180 4 3 12 14 19 25 7 11 22 35 33 53 20 30 38 42 40
25z m-1921 -227 c50 -10 66 -15 119 -36 107 -42 149 -64 262 -135 76 -48 192
-139 259 -202 30 -29 58 -53 63 -53 4 0 7 -6 7 -13 0 -11 -360 -528 -397 -572
-5 -5 -24 -32 -43 -60 -19 -27 -37 -51 -42 -53 -4 -2 -8 -10 -8 -18 0 -8 -4
-14 -9 -14 -5 0 -12 -8 -15 -17 -3 -10 -18 -33 -34 -50 -27 -32 -47 -41 -54
-25 -1 4 -25 25 -53 47 -136 107 -303 277 -390 395 -94 128 -127 187 -162 291
-22 66 -24 219 -3 264 7 17 14 32 14 35 4 17 48 72 91 113 47 46 166 113 183
104 4 -3 16 -1 27 3 20 7 139 5 185 -4z m1189 -1056 c24 -36 69 -105 100 -155
64 -102 62 -100 116 -192 22 -37 46 -80 55 -94 32 -56 185 -334 185 -339 1 -3
11 -21 23 -40 12 -19 22 -38 22 -42 0 -15 -49 -7 -180 30 -30 9 -58 15 -62 14
-6 -1 -263 80 -298 95 -8 3 -19 7 -25 9 -47 12 -439 186 -443 196 -2 4 -10 8
-17 8 -38 0 -25 26 100 195 8 11 80 113 159 225 80 113 150 211 156 218 13 14
24 0 109 -128z"/>
</g>
</svg>
